# xmcd
#
# Track frame offsets: 
#        150
#        16565
#        34163
#        49287
#
# Disc length: 841 seconds
#
# Revision: 0
# Processed by: cddbd v1.5.2PL0 Copyright (c) Steve Scherf et al.
# Submitted via: ExactAudioCopy v0.99pb5
#
DISCID=26034704
DTITLE=Cuby and The Blizzards - Stranger
DYEAR=2009
DGENRE=Blues
TTITLE0=Stranger
TTITLE1=Stranger (live TROS Muziekcafé)
TTITLE2=Baghdad Blues (live TROS Muziekcafé)
TTITLE3=Just For Fun (live TROS Muziekcafé)
EXTD=
EXTT0=
EXTT1=
EXTT2=
EXTT3=
PLAYORDER=
